{
  "accessors": [
    {
      "bufferView": 2,
      "componentType": 5126,
      "count": 1233,
      "max": [
        0.01598474197089672,
        -0.015155150555074215,
        0.009566785767674446
      ],
      "min": [
        -0.010760681703686714,
        -0.05517132580280304,
        -0.015677575021982193
      ],
      "type": "VEC3"
    },
    {
      "bufferView": 2,
      "byteOffset": 14796,
      "componentType": 5126,
      "count": 1233,
      "max": [
        0.9988859295845032,
        0.9973753690719604,
        0.9927417039871216
      ],
      "min": [
        -0.9980219602584839,
        -0.9998760223388672,
        -0.9987623691558838
      ],
      "type": "VEC3"
    },
    {
      "bufferView": 1,
      "componentType": 5126,
      "count": 1233,
      "max": [
        0.99560546875,
        0.99658203125
      ],
      "min": [
        0.005401611328125,
        0.003009796142578125
      ],
      "type": "VEC2"
    },
    {
      "bufferView": 1,
      "byteOffset": 9864,
      "componentType": 5126,
      "count": 1233,
      "max": [
        0.9892578125,
        0.9912109375
      ],
      "min": [
        0.00806427001953125,
        0.00806427001953125
      ],
      "type": "VEC2"
    },
    {
      "bufferView": 0,
      "componentType": 5125,
      "count": 4821,
      "type": "SCALAR"
    },
    {
      "bufferView": 2,
      "byteOffset": 29592,
      "componentType": 5126,
      "count": 504,
      "max": [
        0.014117122627794743,
        0.0025949375703930855,
        0.0019788334611803293
      ],
      "min": [
        -0.00378828844986856,
        -0.042587533593177795,
        -0.011280778795480728
      ],
      "type": "VEC3"
    },
    {
      "bufferView": 2,
      "byteOffset": 35640,
      "componentType": 5126,
      "count": 504,
      "max": [
        0.9988859295845032,
        0.9954954981803894,
        1.0
      ],
      "min": [
        -0.9998760223388672,
        -0.9954954981803894,
        -1.0
      ],
      "type": "VEC3"
    },
    {
      "bufferView": 1,
      "byteOffset": 19728,
      "componentType": 5126,
      "count": 504,
      "max": [
        0.96728515625,
        0.9970703125
      ],
      "min": [
        0.0029296875,
        0.01241302490234375
      ],
      "type": "VEC2"
    },
    {
      "bufferView": 1,
      "byteOffset": 23760,
      "componentType": 5126,
      "count": 504,
      "max": [
        0.990234375,
        0.9853515625
      ],
      "min": [
        0.1854248046875,
        0.52392578125
      ],
      "type": "VEC2"
    },
    {
      "bufferView": 0,
      "byteOffset": 19284,
      "componentType": 5125,
      "count": 1398,
      "type": "SCALAR"
    }
  ],
  "asset": {
    "extras": {
      "author": "Luquita (https://sketchfab.com/speedmodel)",
      "license": "CC-BY-4.0 (http://creativecommons.org/licenses/by/4.0/)",
      "source": "https://sketchfab.com/3d-models/valorant-jett-chibi-keychain-f3735b1edb4b4c1aa4d4fe305178b646",
      "title": "Valorant - Jett Chibi (Keychain)"
    },
    "generator": "Sketchfab-13.32.0",
    "version": "2.0"
  },
  "bufferViews": [
    {
      "buffer": 0,
      "byteLength": 24876,
      "name": "floatBufferViews",
      "target": 34963
    },
    {
      "buffer": 0,
      "byteLength": 27792,
      "byteOffset": 24876,
      "byteStride": 8,
      "name": "floatBufferViews",
      "target": 34962
    },
    {
      "buffer": 0,
      "byteLength": 41688,
      "byteOffset": 52668,
      "byteStride": 12,
      "name": "floatBufferViews",
      "target": 34962
    }
  ],
  "buffers": [
    {
      "byteLength": 94356,
      "uri": "scene.bin"
    }
  ],
  "images": [
    {
      "uri": "textures/Buddy_ChibiJett_MI_baseColor.png"
    },
    {
      "uri": "textures/Buddy_ChibiJett_MI_metallicRoughness.png"
    }
  ],
  "materials": [
    {
      "name": "Buddy_ChibiJett_MI",
      "pbrMetallicRoughness": {
        "baseColorTexture": {
          "index": 0
        },
        "metallicFactor": 0.13257183259987076,
        "metallicRoughnessTexture": {
          "index": 1
        }
      }
    },
    {
      "name": "Buddy_Anime_Plastic_MI",
      "pbrMetallicRoughness": {
        "baseColorFactor": [
          0.38638409712110955,
          0.38638409712110955,
          0.38638409712110955,
          1.0
        ],
        "metallicFactor": 0.1,
        "roughnessFactor": 0.2118101693262303
      }
    }
  ],
  "meshes": [
    {
      "name": "Object_0",
      "primitives": [
        {
          "attributes": {
            "NORMAL": 1,
            "POSITION": 0,
            "TEXCOORD_0": 2,
            "TEXCOORD_1": 3
          },
          "indices": 4,
          "material": 0,
          "mode": 4
        }
      ]
    },
    {
      "name": "Object_1",
      "primitives": [
        {
          "attributes": {
            "NORMAL": 6,
            "POSITION": 5,
            "TEXCOORD_0": 7,
            "TEXCOORD_1": 8
          },
          "indices": 9,
          "material": 1,
          "mode": 4
        }
      ]
    }
  ],
  "nodes": [
    {
      "children": [
        1
      ],
      "matrix": [
        1.0,
        0.0,
        0.0,
        0.0,
        0.0,
        2.220446049250313e-16,
        -1.0,
        0.0,
        0.0,
        1.0,
        2.220446049250313e-16,
        0.0,
        0.0,
        0.0,
        0.0,
        1.0
      ],
      "name": "Sketchfab_model"
    },
    {
      "children": [
        2
      ],
      "name": "root"
    },
    {
      "children": [
        3
      ],
      "matrix": [
        1.0,
        0.0,
        0.0,
        0.0,
        0.0,
        2.220446049250313e-16,
        1.0,
        0.0,
        0.0,
        -1.0,
        2.220446049250313e-16,
        0.0,
        0.0,
        0.0,
        0.0,
        1.0
      ],
      "name": "GLTF_SceneRootNode"
    },
    {
      "children": [
        4,
        5
      ],
      "name": "GN_Buddies_ChibiJett_Charm_Staticmesh_0"
    },
    {
      "mesh": 0,
      "name": "Object_4"
    },
    {
      "mesh": 1,
      "name": "Object_5"
    }
  ],
  "samplers": [
    {
      "magFilter": 9729,
      "minFilter": 9987,
      "wrapS": 10497,
      "wrapT": 10497
    }
  ],
  "scene": 0,
  "scenes": [
    {
      "name": "Sketchfab_Scene",
      "nodes": [
        0
      ]
    }
  ],
  "textures": [
    {
      "sampler": 0,
      "source": 0
    },
    {
      "sampler": 0,
      "source": 1
    }
  ]
}
